<svg xmlns="http://www.w3.org/2000/svg" viewBox="0 0 220 330"><defs><g id="sprig" fill="none" stroke="#efe7c4" stroke-width="1.4"><path d="M0 120Q32 65 9 0"/><path d="M16 84Q-13 86 -16 57Q8 53 16 84Z"/><path d="M20 64Q52 57 48 34Q22 35 20 64Z"/><path d="M19 43Q-4 44 -10 20Q12 16 19 43Z"/><path d="M11 19Q35 9 27 -11Q7 -5 11 19Z"/><path d="M16 84L-9 62M20 64L43 39M19 43L-5 25M11 19L24 -5"/></g></defs><g style="filter:drop-shadow(1px 2px 1px #282e19)"><use href="#sprig" transform="translate(60 55) rotate(-28)"/><use href="#sprig" transform="translate(150 210) rotate(155)"/><use href="#sprig" transform="translate(5 260) rotate(-45)"/></g></svg>